<svg class="icon" viewBox="0 0 1251 1024" xmlns="http://www.w3.org/2000/svg" width="244.336" height="200"><defs><style/></defs><path d="M592.502 141.87c284.272 0 441.65 308.085 448.078 320.939a36.667 36.667 0 0 1 0 30.157c-6.51 10.794-163.724 316.654-448.078 316.654-284.27 0-441.65-305.86-448.077-318.796a36.75 36.75 0 0 1 0-30.158c6.51-12.936 165.866-318.795 448.077-318.795zm0 64.6c-211.102 0-348.953 211.103-383.477 269.275C243.549 533.918 381.4 745.02 592.502 745.02s348.954-211.102 383.396-269.275C941.456 417.573 803.687 206.47 592.502 206.47zm0 135.709c77.536 0 140.076 62.54 140.076 140.076 0 77.453-62.54 139.993-140.076 139.993S452.427 559.79 452.427 482.172c0-77.453 62.54-139.993 140.075-139.993zm0 64.682a76.3 76.3 0 0 0-75.393 75.394c0 40.869 34.442 75.393 75.393 75.393a76.3 76.3 0 0 0 75.394-75.393 76.3 76.3 0 0 0-75.394-75.394z"/></svg>