<svg class="icon" viewBox="0 0 1126 1024" xmlns="http://www.w3.org/2000/svg" width="219.922" height="200"><defs><style/></defs><path d="M950.643 483.375c-5.859-11.643-147.351-288.77-403.27-288.77-21.357 0-42.64 1.928-63.998 5.784-15.499 3.93-27.142 17.502-23.211 33 3.856 15.5 17.427 27.142 32.926 23.212 17.427-3.856 34.854-3.856 52.355-3.856 189.992 0 314.058 189.992 345.056 242.347a562.857 562.857 0 0 1-58.14 83.353 30.034 30.034 0 0 0 3.857 40.787 32.778 32.778 0 0 0 19.429 5.784 35.744 35.744 0 0 0 23.211-9.714c46.571-56.212 71.785-104.711 71.785-106.64a20.393 20.393 0 0 0 0-25.213zM277.884 149.962a28.18 28.18 0 0 0-40.712 0 28.18 28.18 0 0 0 0 40.713l83.353 83.279C208.102 357.38 147.96 475.663 144.178 481.447a33.074 33.074 0 0 0 0 27.142c5.858 11.643 147.351 286.99 403.27 286.99 75.64 0 149.279-25.214 219.061-73.713l87.284 87.21a29.144 29.144 0 0 0 21.283 7.786 28.18 28.18 0 0 0 21.358-48.499l-618.55-618.475zm220.99 304.343l94.996 94.996a67.706 67.706 0 0 1-46.497 19.355 68.67 68.67 0 0 1-67.854-67.78c0-17.5 7.786-34.928 19.355-46.57zm48.5 283.06c-189.993 0-314.059-189.992-345.13-242.347 19.429-32.926 73.712-118.282 158.993-178.35l94.996 94.922c-23.211 23.36-34.854 54.358-34.854 87.284 0 69.782 56.212 126.068 125.994 126.068 32.926 0 63.998-13.57 87.21-34.854l89.211 89.138c-56.211 38.71-116.353 58.14-176.495 58.14z"/></svg>