<svg class="icon" viewBox="0 0 1024 1024" xmlns="http://www.w3.org/2000/svg" width="200" height="200"><defs><style/></defs><path d="M118.827 584.533C85.333 667.093 80 746.667 106.667 760.747c18.56 10.24 47.36-13.014 74.453-55.467A234.667 234.667 0 0 0 256 826.88c-39.68 15.573-65.707 40.747-65.707 69.333 0 47.147 70.187 85.334 157.014 85.334 78.293 0 142.933-30.934 154.88-71.467h18.56c12.586 40.32 76.586 71.253 155.52 71.253 86.826 0 157.013-37.973 157.013-85.333 0-28.587-26.027-53.76-65.707-69.333a234.667 234.667 0 0 0 75.094-121.6c27.093 42.666 55.893 65.706 74.453 55.466 26.88-14.72 21.333-93.44-11.947-176.213-26.24-64-61.653-112.64-88.746-123.307V448.64a129.92 129.92 0 0 0-18.134-67.2 28.587 28.587 0 0 0 0-4.48 72.747 72.747 0 0 0-7.04-31.573C785.28 176.853 680.96 42.667 512 42.667s-273.28 134.186-280.107 302.72a75.307 75.307 0 0 0-7.04 31.786 35.84 35.84 0 0 0 0 4.48A131.2 131.2 0 0 0 206.933 448v12.587c-27.093 10.666-62.72 58.453-88.746 123.093z"/></svg>