<svg class="icon" viewBox="0 0 1024 1024" xmlns="http://www.w3.org/2000/svg" width="200" height="200"><defs><style/></defs><path d="M679.68 360.107a284.16 284.16 0 0 1 32 1.92C682.667 227.84 539.52 128 375.68 128 192 128 42.667 253.013 42.667 411.52c0 91.52 49.92 166.613 133.333 224.853L142.72 736.64l116.48-58.453a569.813 569.813 0 0 0 116.693 16.64c10.454 0 21.334 0 31.147-1.28a248.32 248.32 0 0 1-10.24-69.76c0-145.494 125.013-263.68 283.093-263.68zM498.347 263.04a51.413 51.413 0 1 1-51.414 51.413 51.413 51.413 0 0 1 51.414-51.413zM265.173 367.147a51.413 51.413 0 1 1 51.414-51.414 51.413 51.413 0 0 1-51.414 51.414zM981.333 620.8c0-133.12-133.333-241.707-282.88-241.707-158.506 0-283.306 108.587-283.306 241.707s124.8 241.707 283.306 241.707a418.773 418.773 0 0 0 99.84-16.64L889.813 896l-24.96-83.2c66.774-50.133 116.694-116.693 116.694-192zm-369.92-37.333a36.693 36.693 0 1 1 36.694-36.694 36.693 36.693 0 0 1-36.694 36.694zm183.04 2.133A36.693 36.693 0 1 1 832 548.907a36.693 36.693 0 0 1-36.693 36.693z"/></svg>