<svg class="icon" viewBox="0 0 1024 1024" xmlns="http://www.w3.org/2000/svg" width="200" height="200"><defs><style/></defs><path d="M736.653 929.96H287.347c-45.976 0-83.592-37.617-83.592-83.593V177.633c0-45.976 37.616-83.592 83.592-83.592h449.306c45.976 0 83.592 37.616 83.592 83.592v668.734c0 45.976-37.616 83.592-83.592 83.592zM287.347 135.836c-22.988 0-41.796 18.808-41.796 41.796v668.734c0 22.988 18.808 41.796 41.796 41.796h449.306c22.988 0 41.796-18.808 41.796-41.796V177.633c0-22.988-18.808-41.796-41.796-41.796H287.347z"/><path d="M616.49 815.02H407.51c-11.494 0-20.898-9.404-20.898-20.898s9.404-20.898 20.898-20.898h208.98c11.494 0 20.898 9.405 20.898 20.898s-9.404 20.898-20.898 20.898z"/></svg>