<svg class="icon" viewBox="0 0 1024 1024" xmlns="http://www.w3.org/2000/svg" width="200" height="200"><defs><style/></defs><path d="M864.412 448.823H734.166V222.565c0-59.484-23.155-115.374-65.173-157.392S571.085 0 511.601 0c-59.484 0-115.375 23.155-157.393 65.173s-65.173 97.908-65.173 157.392v226.258H157.991c-52.098 0-94.415 42.318-94.415 94.416v384.35c0 52.098 42.317 94.415 94.415 94.415h706.42c52 0 94.416-42.317 94.416-94.416V543.24c0-52.098-42.317-94.416-94.415-94.416zM352.91 222.565c0-87.529 71.16-158.69 158.69-158.69s158.69 71.161 158.69 158.69v225.66H352.91v-225.66zm511.5 735.564h-706.42c-16.867 0-30.54-13.674-30.54-30.54v-384.35c0-16.867 13.673-30.54 30.54-30.54h706.42c16.868 0 30.541 13.673 30.541 30.54v384.35c0 16.866-13.673 30.54-30.54 30.54z"/><path d="M511.002 658.414c-24.253 0-43.914 19.662-43.914 43.914 0 12.077 4.89 23.055 12.775 30.94v41.918c0 17.665 14.272 31.938 31.937 31.938s31.938-14.273 31.938-31.938v-43.615a43.664 43.664 0 0 0 11.178-29.243c0-24.252-19.661-43.914-43.914-43.914z"/></svg>