<svg class="icon" viewBox="0 0 1024 1024" xmlns="http://www.w3.org/2000/svg" width="200" height="200"><defs><style/></defs><path d="M925.8 720.7c-22.5-53.2-54.7-101-95.7-142s-88.8-73.2-142-95.7c-13.7-5.8-27.7-10.9-41.8-15.3 9-6.7 17.6-14 25.7-22.1 42.2-42.2 65.4-98.2 65.4-157.8 0-59.6-23.2-115.7-65.4-157.8s-98.2-65.4-157.8-65.4S398.5 87.8 356.4 130 291 228.2 291 287.8c0 59.6 23.2 115.7 65.4 157.8 8.1 8.1 16.7 15.5 25.7 22.1-14.1 4.4-28.1 9.5-41.8 15.3-53.2 22.5-101 54.7-142 95.7s-73.2 88.8-95.7 142c-23.3 55.1-35.1 113.6-35.1 173.9 0 36.6 29.8 66.5 66.5 66.5h760.6c36.6 0 66.5-29.8 66.5-66.5-.2-60.3-12-118.8-35.3-173.9zM354.5 287.8c0-88 71.6-159.7 159.7-159.7s159.7 71.6 159.7 159.7-71.6 159.7-159.7 159.7-159.7-71.7-159.7-159.7zm540 609.3H133.9c-1.4 0-2.5-1.1-2.5-2.5 0-102.2 39.8-198.3 112.1-270.6 72.3-72.3 168.4-112.1 270.6-112.1 102.2 0 198.3 39.8 270.6 112.1 72.3 72.3 112.1 168.4 112.1 270.6.1 1.4-1 2.5-2.3 2.5z"/></svg>